<mxfile host="app.diagrams.net" agent="Mozilla/5.0 (Windows NT 10.0; Win64; x64) AppleWebKit/537.36 (KHTML, like Gecko) Chrome/136.0.0.0 Safari/537.36" version="27.1.4">
  <diagram name="ページ1" id="wWxA5QYIjO-2iZBHDd4V">
    <mxGraphModel dx="1042" dy="527" grid="1" gridSize="10" guides="1" tooltips="1" connect="1" arrows="1" fold="1" page="1" pageScale="1" pageWidth="827" pageHeight="1169" math="0" shadow="0">
      <root>
        <mxCell id="0" />
        <mxCell id="1" parent="0" />
        <mxCell id="_xw4_Gpzc3HaPvMaf7wx-1" value="商品出庫フロー" style="swimlane;childLayout=stackLayout;resizeParent=1;resizeParentMax=0;startSize=20;html=1;" vertex="1" parent="1">
          <mxGeometry x="50" y="240" width="760" height="890" as="geometry" />
        </mxCell>
        <mxCell id="_xw4_Gpzc3HaPvMaf7wx-2" value="お客様" style="swimlane;startSize=20;html=1;" vertex="1" parent="_xw4_Gpzc3HaPvMaf7wx-1">
          <mxGeometry y="20" width="180" height="870" as="geometry" />
        </mxCell>
        <mxCell id="_xw4_Gpzc3HaPvMaf7wx-6" value="製品を購入" style="rounded=1;whiteSpace=wrap;html=1;" vertex="1" parent="_xw4_Gpzc3HaPvMaf7wx-2">
          <mxGeometry x="30" y="60" width="120" height="60" as="geometry" />
        </mxCell>
        <mxCell id="_xw4_Gpzc3HaPvMaf7wx-3" value="店員/管理者" style="swimlane;startSize=20;html=1;" vertex="1" parent="_xw4_Gpzc3HaPvMaf7wx-1">
          <mxGeometry x="180" y="20" width="190" height="870" as="geometry" />
        </mxCell>
        <mxCell id="_xw4_Gpzc3HaPvMaf7wx-7" value="&amp;nbsp;商品情報の確認を押下する" style="rounded=0;whiteSpace=wrap;html=1;" vertex="1" parent="_xw4_Gpzc3HaPvMaf7wx-3">
          <mxGeometry x="30" y="60" width="120" height="60" as="geometry" />
        </mxCell>
        <mxCell id="_xw4_Gpzc3HaPvMaf7wx-4" value="出庫端末" style="swimlane;startSize=20;html=1;" vertex="1" parent="_xw4_Gpzc3HaPvMaf7wx-1">
          <mxGeometry x="370" y="20" width="210" height="870" as="geometry" />
        </mxCell>
        <mxCell id="_xw4_Gpzc3HaPvMaf7wx-11" value="" style="edgeStyle=orthogonalEdgeStyle;rounded=0;orthogonalLoop=1;jettySize=auto;html=1;" edge="1" parent="_xw4_Gpzc3HaPvMaf7wx-4" source="_xw4_Gpzc3HaPvMaf7wx-8" target="_xw4_Gpzc3HaPvMaf7wx-10">
          <mxGeometry relative="1" as="geometry" />
        </mxCell>
        <mxCell id="_xw4_Gpzc3HaPvMaf7wx-8" value="商品在庫が表示される" style="whiteSpace=wrap;html=1;rounded=0;" vertex="1" parent="_xw4_Gpzc3HaPvMaf7wx-4">
          <mxGeometry x="40" y="60" width="120" height="60" as="geometry" />
        </mxCell>
        <mxCell id="_xw4_Gpzc3HaPvMaf7wx-10" value="在庫数を減らす" style="whiteSpace=wrap;html=1;rounded=0;" vertex="1" parent="_xw4_Gpzc3HaPvMaf7wx-4">
          <mxGeometry x="40" y="200" width="120" height="60" as="geometry" />
        </mxCell>
        <mxCell id="_xw4_Gpzc3HaPvMaf7wx-16" value="「在庫数が少ない」メッセージが表示" style="whiteSpace=wrap;html=1;rounded=0;" vertex="1" parent="_xw4_Gpzc3HaPvMaf7wx-4">
          <mxGeometry x="40" y="340" width="120" height="60" as="geometry" />
        </mxCell>
        <mxCell id="_xw4_Gpzc3HaPvMaf7wx-19" value="出荷完了メッセージ" style="whiteSpace=wrap;html=1;rounded=0;" vertex="1" parent="_xw4_Gpzc3HaPvMaf7wx-4">
          <mxGeometry x="30" y="700" width="120" height="60" as="geometry" />
        </mxCell>
        <mxCell id="_xw4_Gpzc3HaPvMaf7wx-5" value="在庫管理システム" style="swimlane;startSize=20;html=1;" vertex="1" parent="_xw4_Gpzc3HaPvMaf7wx-1">
          <mxGeometry x="580" y="20" width="180" height="870" as="geometry" />
        </mxCell>
        <mxCell id="_xw4_Gpzc3HaPvMaf7wx-15" value="" style="edgeStyle=orthogonalEdgeStyle;rounded=0;orthogonalLoop=1;jettySize=auto;html=1;" edge="1" parent="_xw4_Gpzc3HaPvMaf7wx-5" source="_xw4_Gpzc3HaPvMaf7wx-12" target="_xw4_Gpzc3HaPvMaf7wx-14">
          <mxGeometry relative="1" as="geometry" />
        </mxCell>
        <mxCell id="_xw4_Gpzc3HaPvMaf7wx-12" value="在庫確認" style="whiteSpace=wrap;html=1;rounded=0;" vertex="1" parent="_xw4_Gpzc3HaPvMaf7wx-5">
          <mxGeometry x="40" y="200" width="120" height="60" as="geometry" />
        </mxCell>
        <mxCell id="_xw4_Gpzc3HaPvMaf7wx-23" value="" style="edgeStyle=orthogonalEdgeStyle;rounded=0;orthogonalLoop=1;jettySize=auto;html=1;" edge="1" parent="_xw4_Gpzc3HaPvMaf7wx-5" source="_xw4_Gpzc3HaPvMaf7wx-14" target="_xw4_Gpzc3HaPvMaf7wx-22">
          <mxGeometry relative="1" as="geometry" />
        </mxCell>
        <mxCell id="_xw4_Gpzc3HaPvMaf7wx-14" value="在庫切れ？" style="rhombus;whiteSpace=wrap;html=1;rounded=0;" vertex="1" parent="_xw4_Gpzc3HaPvMaf7wx-5">
          <mxGeometry x="60" y="330" width="80" height="80" as="geometry" />
        </mxCell>
        <mxCell id="_xw4_Gpzc3HaPvMaf7wx-25" value="" style="edgeStyle=orthogonalEdgeStyle;rounded=0;orthogonalLoop=1;jettySize=auto;html=1;" edge="1" parent="_xw4_Gpzc3HaPvMaf7wx-5" source="_xw4_Gpzc3HaPvMaf7wx-22" target="_xw4_Gpzc3HaPvMaf7wx-24">
          <mxGeometry relative="1" as="geometry">
            <Array as="points">
              <mxPoint x="100" y="620" />
              <mxPoint x="100" y="620" />
            </Array>
          </mxGeometry>
        </mxCell>
        <mxCell id="_xw4_Gpzc3HaPvMaf7wx-22" value="出荷ログを記録する" style="whiteSpace=wrap;html=1;rounded=0;" vertex="1" parent="_xw4_Gpzc3HaPvMaf7wx-5">
          <mxGeometry x="40" y="500" width="120" height="60" as="geometry" />
        </mxCell>
        <mxCell id="_xw4_Gpzc3HaPvMaf7wx-24" value="DBを保存" style="shape=cylinder3;whiteSpace=wrap;html=1;boundedLbl=1;backgroundOutline=1;size=15;" vertex="1" parent="_xw4_Gpzc3HaPvMaf7wx-5">
          <mxGeometry x="50" y="650" width="110" height="160" as="geometry" />
        </mxCell>
        <mxCell id="_xw4_Gpzc3HaPvMaf7wx-9" value="" style="edgeStyle=orthogonalEdgeStyle;rounded=0;orthogonalLoop=1;jettySize=auto;html=1;" edge="1" parent="_xw4_Gpzc3HaPvMaf7wx-1" source="_xw4_Gpzc3HaPvMaf7wx-7" target="_xw4_Gpzc3HaPvMaf7wx-8">
          <mxGeometry relative="1" as="geometry" />
        </mxCell>
        <mxCell id="_xw4_Gpzc3HaPvMaf7wx-13" value="" style="edgeStyle=orthogonalEdgeStyle;rounded=0;orthogonalLoop=1;jettySize=auto;html=1;" edge="1" parent="_xw4_Gpzc3HaPvMaf7wx-1" source="_xw4_Gpzc3HaPvMaf7wx-10" target="_xw4_Gpzc3HaPvMaf7wx-12">
          <mxGeometry relative="1" as="geometry" />
        </mxCell>
        <mxCell id="_xw4_Gpzc3HaPvMaf7wx-17" value="" style="edgeStyle=orthogonalEdgeStyle;rounded=0;orthogonalLoop=1;jettySize=auto;html=1;" edge="1" parent="_xw4_Gpzc3HaPvMaf7wx-1" source="_xw4_Gpzc3HaPvMaf7wx-14" target="_xw4_Gpzc3HaPvMaf7wx-16">
          <mxGeometry relative="1" as="geometry" />
        </mxCell>
        <mxCell id="_xw4_Gpzc3HaPvMaf7wx-18" value="ある" style="edgeLabel;html=1;align=center;verticalAlign=middle;resizable=0;points=[];" vertex="1" connectable="0" parent="_xw4_Gpzc3HaPvMaf7wx-17">
          <mxGeometry x="-0.368" y="1" relative="1" as="geometry">
            <mxPoint as="offset" />
          </mxGeometry>
        </mxCell>
        <mxCell id="_xw4_Gpzc3HaPvMaf7wx-26" value="" style="edgeStyle=orthogonalEdgeStyle;rounded=0;orthogonalLoop=1;jettySize=auto;html=1;" edge="1" parent="_xw4_Gpzc3HaPvMaf7wx-1" source="_xw4_Gpzc3HaPvMaf7wx-24" target="_xw4_Gpzc3HaPvMaf7wx-19">
          <mxGeometry relative="1" as="geometry" />
        </mxCell>
        <mxCell id="_xw4_Gpzc3HaPvMaf7wx-27" value="" style="edgeStyle=orthogonalEdgeStyle;rounded=0;orthogonalLoop=1;jettySize=auto;html=1;" edge="1" parent="_xw4_Gpzc3HaPvMaf7wx-1" source="_xw4_Gpzc3HaPvMaf7wx-6" target="_xw4_Gpzc3HaPvMaf7wx-7">
          <mxGeometry relative="1" as="geometry" />
        </mxCell>
      </root>
    </mxGraphModel>
  </diagram>
</mxfile>
